<mxfile host="Electron" modified="2023-06-07T10:06:37.330Z" agent="Mozilla/5.0 (X11; Linux x86_64) AppleWebKit/537.36 (KHTML, like Gecko) draw.io/21.2.8 Chrome/106.0.5249.199 Electron/21.4.4 Safari/537.36" etag="WABw26SotzEj1i0ZATxE" version="21.2.8" type="device">
  <diagram name="Page-1" id="2YBvvXClWsGukQMizWep">
    <mxGraphModel dx="1434" dy="-243" grid="1" gridSize="10" guides="1" tooltips="1" connect="1" arrows="1" fold="1" page="1" pageScale="1" pageWidth="850" pageHeight="1100" math="0" shadow="0">
      <root>
        <mxCell id="0" />
        <mxCell id="1" parent="0" />
        <mxCell id="KgcwhwzwJlgUO1JTBY_t-3" value="" style="shape=umlLifeline;perimeter=lifelinePerimeter;whiteSpace=wrap;html=1;container=1;dropTarget=0;collapsible=0;recursiveResize=0;outlineConnect=0;portConstraint=eastwest;newEdgeStyle={&quot;edgeStyle&quot;:&quot;elbowEdgeStyle&quot;,&quot;elbow&quot;:&quot;vertical&quot;,&quot;curved&quot;:0,&quot;rounded&quot;:0};participant=umlActor;size=40;" parent="1" vertex="1">
          <mxGeometry x="150" y="1120" width="20" height="950" as="geometry" />
        </mxCell>
        <mxCell id="KgcwhwzwJlgUO1JTBY_t-4" value="" style="html=1;points=[];perimeter=orthogonalPerimeter;outlineConnect=0;targetShapes=umlLifeline;portConstraint=eastwest;newEdgeStyle={&quot;edgeStyle&quot;:&quot;elbowEdgeStyle&quot;,&quot;elbow&quot;:&quot;vertical&quot;,&quot;curved&quot;:0,&quot;rounded&quot;:0};" parent="KgcwhwzwJlgUO1JTBY_t-3" vertex="1">
          <mxGeometry x="5" y="50" width="10" height="870" as="geometry" />
        </mxCell>
        <mxCell id="6_1-8qy97I9ZGp-JPqzc-2" value="&lt;font style=&quot;font-size: 10px;&quot;&gt;SourceType&lt;/font&gt;" style="html=1;align=left;spacingLeft=2;endArrow=block;rounded=0;edgeStyle=orthogonalEdgeStyle;curved=0;rounded=0;" parent="KgcwhwzwJlgUO1JTBY_t-3" source="KgcwhwzwJlgUO1JTBY_t-4" target="KgcwhwzwJlgUO1JTBY_t-4" edge="1">
          <mxGeometry relative="1" as="geometry">
            <mxPoint x="20" y="60" as="sourcePoint" />
            <Array as="points">
              <mxPoint x="50" y="70" />
              <mxPoint x="50" y="110" />
            </Array>
            <mxPoint x="20" y="90" as="targetPoint" />
          </mxGeometry>
        </mxCell>
        <mxCell id="6_1-8qy97I9ZGp-JPqzc-3" value="alt" style="shape=umlFrame;whiteSpace=wrap;html=1;pointerEvents=0;width=30;height=30;" parent="1" vertex="1">
          <mxGeometry x="10" y="1250" width="750" height="600" as="geometry" />
        </mxCell>
        <mxCell id="6_1-8qy97I9ZGp-JPqzc-4" value="&lt;font style=&quot;font-size: 10px;&quot;&gt;[SourceType==CSVSource]&lt;/font&gt;" style="text;strokeColor=none;fillColor=none;align=left;verticalAlign=top;spacingLeft=4;spacingRight=4;overflow=hidden;rotatable=0;points=[[0,0.5],[1,0.5]];portConstraint=eastwest;whiteSpace=wrap;html=1;" parent="1" vertex="1">
          <mxGeometry x="10" y="1280" width="140" height="26" as="geometry" />
        </mxCell>
        <mxCell id="6_1-8qy97I9ZGp-JPqzc-5" value="CSVSource" style="shape=umlLifeline;perimeter=lifelinePerimeter;whiteSpace=wrap;html=1;container=1;dropTarget=0;collapsible=0;recursiveResize=0;outlineConnect=0;portConstraint=eastwest;newEdgeStyle={&quot;edgeStyle&quot;:&quot;elbowEdgeStyle&quot;,&quot;elbow&quot;:&quot;vertical&quot;,&quot;curved&quot;:0,&quot;rounded&quot;:0};" parent="1" vertex="1">
          <mxGeometry x="290" y="1260" width="100" height="290" as="geometry" />
        </mxCell>
        <mxCell id="6_1-8qy97I9ZGp-JPqzc-6" value="" style="html=1;points=[];perimeter=orthogonalPerimeter;outlineConnect=0;targetShapes=umlLifeline;portConstraint=eastwest;newEdgeStyle={&quot;edgeStyle&quot;:&quot;elbowEdgeStyle&quot;,&quot;elbow&quot;:&quot;vertical&quot;,&quot;curved&quot;:0,&quot;rounded&quot;:0};" parent="6_1-8qy97I9ZGp-JPqzc-5" vertex="1">
          <mxGeometry x="45" y="56" width="10" height="214" as="geometry" />
        </mxCell>
        <mxCell id="WzOtO7L-p5QBb_bY3mz2-6" value="" style="html=1;points=[];perimeter=orthogonalPerimeter;outlineConnect=0;targetShapes=umlLifeline;portConstraint=eastwest;newEdgeStyle={&quot;edgeStyle&quot;:&quot;elbowEdgeStyle&quot;,&quot;elbow&quot;:&quot;vertical&quot;,&quot;curved&quot;:0,&quot;rounded&quot;:0};" parent="6_1-8qy97I9ZGp-JPqzc-5" vertex="1">
          <mxGeometry x="50" y="170" width="10" height="40" as="geometry" />
        </mxCell>
        <mxCell id="WzOtO7L-p5QBb_bY3mz2-7" value="parse(File)" style="html=1;align=left;spacingLeft=2;endArrow=block;rounded=0;edgeStyle=orthogonalEdgeStyle;curved=0;rounded=0;" parent="6_1-8qy97I9ZGp-JPqzc-5" source="6_1-8qy97I9ZGp-JPqzc-6" target="WzOtO7L-p5QBb_bY3mz2-6" edge="1">
          <mxGeometry relative="1" as="geometry">
            <mxPoint x="60" y="150" as="sourcePoint" />
            <Array as="points">
              <mxPoint x="90" y="150" />
              <mxPoint x="90" y="190" />
            </Array>
          </mxGeometry>
        </mxCell>
        <mxCell id="6_1-8qy97I9ZGp-JPqzc-15" value="&lt;font style=&quot;font-size: 10px;&quot;&gt;getArticles()&lt;/font&gt;" style="endArrow=blockThin;endSize=16;endFill=1;html=1;rounded=0;" parent="1" target="6_1-8qy97I9ZGp-JPqzc-6" edge="1">
          <mxGeometry x="-0.1333" width="160" relative="1" as="geometry">
            <mxPoint x="165" y="1340" as="sourcePoint" />
            <mxPoint x="315" y="1340" as="targetPoint" />
            <Array as="points">
              <mxPoint x="190" y="1340" />
              <mxPoint x="290" y="1340" />
            </Array>
            <mxPoint as="offset" />
          </mxGeometry>
        </mxCell>
        <mxCell id="6_1-8qy97I9ZGp-JPqzc-19" value="" style="endArrow=none;dashed=1;html=1;rounded=0;exitX=0;exitY=0.567;exitDx=0;exitDy=0;exitPerimeter=0;entryX=0.999;entryY=0.567;entryDx=0;entryDy=0;entryPerimeter=0;" parent="1" source="6_1-8qy97I9ZGp-JPqzc-3" target="6_1-8qy97I9ZGp-JPqzc-3" edge="1">
          <mxGeometry width="50" height="50" relative="1" as="geometry">
            <mxPoint x="260" y="1500" as="sourcePoint" />
            <mxPoint x="760" y="1410" as="targetPoint" />
          </mxGeometry>
        </mxCell>
        <mxCell id="6_1-8qy97I9ZGp-JPqzc-20" value="&lt;font style=&quot;font-size: 10px;&quot;&gt;[SourceType==APISource]&lt;/font&gt;" style="text;strokeColor=none;fillColor=none;align=left;verticalAlign=top;spacingLeft=4;spacingRight=4;overflow=hidden;rotatable=0;points=[[0,0.5],[1,0.5]];portConstraint=eastwest;whiteSpace=wrap;html=1;" parent="1" vertex="1">
          <mxGeometry x="10" y="1610" width="140" height="30" as="geometry" />
        </mxCell>
        <mxCell id="6_1-8qy97I9ZGp-JPqzc-21" value="APISource" style="shape=umlLifeline;perimeter=lifelinePerimeter;whiteSpace=wrap;html=1;container=1;dropTarget=0;collapsible=0;recursiveResize=0;outlineConnect=0;portConstraint=eastwest;newEdgeStyle={&quot;edgeStyle&quot;:&quot;elbowEdgeStyle&quot;,&quot;elbow&quot;:&quot;vertical&quot;,&quot;curved&quot;:0,&quot;rounded&quot;:0};" parent="1" vertex="1">
          <mxGeometry x="290" y="1620" width="100" height="190" as="geometry" />
        </mxCell>
        <mxCell id="6_1-8qy97I9ZGp-JPqzc-22" value="" style="html=1;points=[];perimeter=orthogonalPerimeter;outlineConnect=0;targetShapes=umlLifeline;portConstraint=eastwest;newEdgeStyle={&quot;edgeStyle&quot;:&quot;elbowEdgeStyle&quot;,&quot;elbow&quot;:&quot;vertical&quot;,&quot;curved&quot;:0,&quot;rounded&quot;:0};fillStyle=solid;" parent="6_1-8qy97I9ZGp-JPqzc-21" vertex="1">
          <mxGeometry x="45" y="50" width="10" height="120" as="geometry" />
        </mxCell>
        <mxCell id="6_1-8qy97I9ZGp-JPqzc-26" value="" style="shape=umlDestroy;whiteSpace=wrap;html=1;strokeWidth=3;targetShapes=umlLifeline;" parent="1" vertex="1">
          <mxGeometry x="325" y="1800" width="30" height="30" as="geometry" />
        </mxCell>
        <mxCell id="NDGKZVB12Xw6W9YrpPGg-1" value="Serializer" style="shape=umlLifeline;perimeter=lifelinePerimeter;whiteSpace=wrap;html=1;container=1;dropTarget=0;collapsible=0;recursiveResize=0;outlineConnect=0;portConstraint=eastwest;newEdgeStyle={&quot;edgeStyle&quot;:&quot;elbowEdgeStyle&quot;,&quot;elbow&quot;:&quot;vertical&quot;,&quot;curved&quot;:0,&quot;rounded&quot;:0};" parent="1" vertex="1">
          <mxGeometry x="430" y="1120" width="100" height="950" as="geometry" />
        </mxCell>
        <mxCell id="NDGKZVB12Xw6W9YrpPGg-2" value="" style="html=1;points=[];perimeter=orthogonalPerimeter;outlineConnect=0;targetShapes=umlLifeline;portConstraint=eastwest;newEdgeStyle={&quot;edgeStyle&quot;:&quot;elbowEdgeStyle&quot;,&quot;elbow&quot;:&quot;vertical&quot;,&quot;curved&quot;:0,&quot;rounded&quot;:0};" parent="NDGKZVB12Xw6W9YrpPGg-1" vertex="1">
          <mxGeometry x="45" y="760" width="10" height="60" as="geometry" />
        </mxCell>
        <mxCell id="NDGKZVB12Xw6W9YrpPGg-3" value="&lt;font style=&quot;font-size: 10px;&quot;&gt;serialize(articles, StoreFileName)&lt;/font&gt;" style="endArrow=openThin;endSize=16;endFill=0;html=1;rounded=0;" parent="1" target="NDGKZVB12Xw6W9YrpPGg-2" edge="1">
          <mxGeometry x="-0.1429" width="160" relative="1" as="geometry">
            <mxPoint x="165" y="1890" as="sourcePoint" />
            <mxPoint x="470" y="1880" as="targetPoint" />
            <mxPoint as="offset" />
            <Array as="points">
              <mxPoint x="250" y="1890" />
              <mxPoint x="400" y="1890" />
            </Array>
          </mxGeometry>
        </mxCell>
        <mxCell id="NDGKZVB12Xw6W9YrpPGg-5" value="&lt;font style=&quot;font-size: 10px;&quot;&gt;writeFile(StoreFileName, articles)&lt;/font&gt;" style="endArrow=openThin;endSize=16;endFill=0;html=1;rounded=0;" parent="1" source="NDGKZVB12Xw6W9YrpPGg-2" target="NDGKZVB12Xw6W9YrpPGg-6" edge="1">
          <mxGeometry x="-0.0851" width="160" relative="1" as="geometry">
            <mxPoint x="490" y="1900" as="sourcePoint" />
            <mxPoint x="670" y="1900" as="targetPoint" />
            <mxPoint as="offset" />
            <Array as="points">
              <mxPoint x="580" y="1900" />
            </Array>
          </mxGeometry>
        </mxCell>
        <mxCell id="NDGKZVB12Xw6W9YrpPGg-8" value="&lt;font style=&quot;font-size: 10px;&quot;&gt;readFile(CSVFileName)&lt;/font&gt;" style="endArrow=blockThin;endSize=16;endFill=1;html=1;rounded=0;" parent="1" target="NDGKZVB12Xw6W9YrpPGg-7" edge="1">
          <mxGeometry width="160" relative="1" as="geometry">
            <mxPoint x="345" y="1350" as="sourcePoint" />
            <mxPoint x="630" y="1350" as="targetPoint" />
            <mxPoint as="offset" />
            <Array as="points">
              <mxPoint x="345" y="1350" />
              <mxPoint x="425" y="1350" />
              <mxPoint x="445" y="1350" />
            </Array>
          </mxGeometry>
        </mxCell>
        <mxCell id="NDGKZVB12Xw6W9YrpPGg-9" value="&lt;font style=&quot;font-size: 10px;&quot;&gt;File&lt;/font&gt;" style="endArrow=openThin;endSize=12;dashed=1;html=1;rounded=0;endFill=0;" parent="1" source="NDGKZVB12Xw6W9YrpPGg-7" edge="1">
          <mxGeometry width="160" relative="1" as="geometry">
            <mxPoint x="630" y="1370" as="sourcePoint" />
            <mxPoint x="345" y="1380" as="targetPoint" />
            <Array as="points">
              <mxPoint x="620" y="1380" />
            </Array>
            <mxPoint as="offset" />
          </mxGeometry>
        </mxCell>
        <mxCell id="NDGKZVB12Xw6W9YrpPGg-24" value="&lt;font style=&quot;font-size: 11px;&quot;&gt;ref&lt;/font&gt;" style="shape=umlFrame;whiteSpace=wrap;html=1;pointerEvents=0;width=40;height=15;fillStyle=hatch;gradientColor=#FFFFFF;swimlaneFillColor=default;strokeColor=#FF6666;" parent="1" vertex="1">
          <mxGeometry x="260" y="1720" width="150" height="30" as="geometry" />
        </mxCell>
        <mxCell id="NDGKZVB12Xw6W9YrpPGg-26" value="&lt;font style=&quot;font-size: 11px;&quot;&gt;API Article Request&lt;/font&gt;" style="text;strokeColor=none;fillColor=none;align=left;verticalAlign=top;spacingLeft=4;spacingRight=4;overflow=hidden;rotatable=0;points=[[0,0.5],[1,0.5]];portConstraint=eastwest;whiteSpace=wrap;html=1;" parent="1" vertex="1">
          <mxGeometry x="300" y="1722" width="110" height="26" as="geometry" />
        </mxCell>
        <mxCell id="WzOtO7L-p5QBb_bY3mz2-1" value="ref" style="shape=umlFrame;whiteSpace=wrap;html=1;pointerEvents=0;swimlaneFillColor=default;gradientColor=#FFFFFF;strokeColor=#FF6666;" parent="1" vertex="1">
          <mxGeometry x="70" y="1970" width="670" height="50" as="geometry" />
        </mxCell>
        <mxCell id="WzOtO7L-p5QBb_bY3mz2-2" value="Deserialize Tokenize" style="text;strokeColor=none;fillColor=none;align=left;verticalAlign=top;spacingLeft=4;spacingRight=4;overflow=hidden;rotatable=0;points=[[0,0.5],[1,0.5]];portConstraint=eastwest;whiteSpace=wrap;html=1;" parent="1" vertex="1">
          <mxGeometry x="310" y="1982" width="130" height="26" as="geometry" />
        </mxCell>
        <mxCell id="WzOtO7L-p5QBb_bY3mz2-9" value="&lt;font style=&quot;font-size: 10px;&quot;&gt;articles&lt;/font&gt;" style="endArrow=openThin;endSize=12;dashed=1;html=1;rounded=0;endFill=0;" parent="1" source="6_1-8qy97I9ZGp-JPqzc-6" edge="1">
          <mxGeometry x="-0.1333" width="160" relative="1" as="geometry">
            <mxPoint x="315" y="1500" as="sourcePoint" />
            <mxPoint x="165" y="1500" as="targetPoint" />
            <Array as="points">
              <mxPoint x="290" y="1500" />
            </Array>
            <mxPoint as="offset" />
          </mxGeometry>
        </mxCell>
        <mxCell id="6_1-8qy97I9ZGp-JPqzc-17" value="" style="shape=umlDestroy;whiteSpace=wrap;html=1;strokeWidth=3;targetShapes=umlLifeline;" parent="1" vertex="1">
          <mxGeometry x="325" y="1535" width="30" height="30" as="geometry" />
        </mxCell>
        <mxCell id="WzOtO7L-p5QBb_bY3mz2-12" value="&lt;font style=&quot;font-size: 10px;&quot;&gt;(CSVFileName)&lt;/font&gt;" style="endArrow=blockThin;endSize=16;endFill=1;html=1;rounded=0;entryX=0;entryY=0.069;entryDx=0;entryDy=0;entryPerimeter=0;" parent="1" target="6_1-8qy97I9ZGp-JPqzc-5" edge="1">
          <mxGeometry x="-0.1429" width="160" relative="1" as="geometry">
            <mxPoint x="165" y="1280" as="sourcePoint" />
            <mxPoint x="270" y="1280" as="targetPoint" />
            <mxPoint as="offset" />
          </mxGeometry>
        </mxCell>
        <mxCell id="WzOtO7L-p5QBb_bY3mz2-13" value="&lt;font style=&quot;font-size: 10px;&quot;&gt;&amp;lt;&amp;lt;destroy&amp;gt;&amp;gt;&lt;/font&gt;" style="endArrow=blockThin;endSize=16;endFill=1;html=1;rounded=0;entryX=0.491;entryY=0.504;entryDx=0;entryDy=0;entryPerimeter=0;" parent="1" target="6_1-8qy97I9ZGp-JPqzc-17" edge="1">
          <mxGeometry x="-0.1613" width="160" relative="1" as="geometry">
            <mxPoint x="165" y="1549.66" as="sourcePoint" />
            <mxPoint x="320" y="1549.66" as="targetPoint" />
            <mxPoint as="offset" />
          </mxGeometry>
        </mxCell>
        <mxCell id="WzOtO7L-p5QBb_bY3mz2-14" value="&lt;font style=&quot;font-size: 8px;&quot;&gt;(apiKey, tags,&lt;br&gt;queries, maxArticle)&amp;nbsp;&lt;/font&gt;" style="endArrow=blockThin;endSize=16;endFill=1;html=1;rounded=0;entryX=0;entryY=0.125;entryDx=0;entryDy=0;entryPerimeter=0;" parent="1" target="6_1-8qy97I9ZGp-JPqzc-21" edge="1">
          <mxGeometry x="-0.1429" width="160" relative="1" as="geometry">
            <mxPoint x="165" y="1640" as="sourcePoint" />
            <mxPoint x="270" y="1640" as="targetPoint" />
            <mxPoint as="offset" />
          </mxGeometry>
        </mxCell>
        <mxCell id="WzOtO7L-p5QBb_bY3mz2-15" value="&lt;font style=&quot;font-size: 10px;&quot;&gt;&amp;lt;&amp;lt;destroy&amp;gt;&amp;gt;&lt;/font&gt;" style="endArrow=blockThin;endSize=16;endFill=1;html=1;rounded=0;" parent="1" edge="1">
          <mxGeometry x="-0.1613" width="160" relative="1" as="geometry">
            <mxPoint x="165" y="1814.89" as="sourcePoint" />
            <mxPoint x="340" y="1814.89" as="targetPoint" />
            <mxPoint as="offset" />
            <Array as="points">
              <mxPoint x="170" y="1814.89" />
            </Array>
          </mxGeometry>
        </mxCell>
        <mxCell id="WzOtO7L-p5QBb_bY3mz2-16" value="&lt;font style=&quot;font-size: 10px;&quot;&gt;articles&lt;/font&gt;" style="endArrow=openThin;endSize=12;dashed=1;html=1;rounded=0;endFill=0;" parent="1" edge="1">
          <mxGeometry width="160" relative="1" as="geometry">
            <mxPoint x="335" y="1780" as="sourcePoint" />
            <mxPoint x="165" y="1780" as="targetPoint" />
            <Array as="points">
              <mxPoint x="310" y="1780" />
              <mxPoint x="280" y="1780" />
            </Array>
            <mxPoint as="offset" />
          </mxGeometry>
        </mxCell>
        <mxCell id="WzOtO7L-p5QBb_bY3mz2-17" value="&lt;font style=&quot;font-size: 11px;&quot;&gt;getArticles()&lt;/font&gt;" style="endArrow=blockThin;endSize=16;endFill=1;html=1;rounded=0;" parent="1" edge="1">
          <mxGeometry x="-0.1333" width="160" relative="1" as="geometry">
            <mxPoint x="165" y="1690" as="sourcePoint" />
            <mxPoint x="335" y="1690" as="targetPoint" />
            <Array as="points">
              <mxPoint x="200" y="1690" />
              <mxPoint x="290" y="1690" />
            </Array>
            <mxPoint as="offset" />
          </mxGeometry>
        </mxCell>
        <mxCell id="NDGKZVB12Xw6W9YrpPGg-6" value="" style="html=1;points=[];perimeter=orthogonalPerimeter;outlineConnect=0;targetShapes=umlLifeline;portConstraint=eastwest;newEdgeStyle={&quot;edgeStyle&quot;:&quot;elbowEdgeStyle&quot;,&quot;elbow&quot;:&quot;vertical&quot;,&quot;curved&quot;:0,&quot;rounded&quot;:0};" parent="1" vertex="1">
          <mxGeometry x="675" y="1880" width="10" height="60" as="geometry" />
        </mxCell>
        <mxCell id="NDGKZVB12Xw6W9YrpPGg-7" value="" style="html=1;points=[];perimeter=orthogonalPerimeter;outlineConnect=0;targetShapes=umlLifeline;portConstraint=eastwest;newEdgeStyle={&quot;edgeStyle&quot;:&quot;elbowEdgeStyle&quot;,&quot;elbow&quot;:&quot;vertical&quot;,&quot;curved&quot;:0,&quot;rounded&quot;:0};" parent="1" vertex="1">
          <mxGeometry x="675" y="1340" width="10" height="60" as="geometry" />
        </mxCell>
        <mxCell id="MN7pzo67MeaETtsZHXxc-1" value="OS FileSystem" style="shape=umlLifeline;perimeter=lifelinePerimeter;whiteSpace=wrap;html=1;container=1;dropTarget=0;collapsible=0;recursiveResize=0;outlineConnect=0;portConstraint=eastwest;newEdgeStyle={&quot;edgeStyle&quot;:&quot;elbowEdgeStyle&quot;,&quot;elbow&quot;:&quot;vertical&quot;,&quot;curved&quot;:0,&quot;rounded&quot;:0};participant=umlEntity;" vertex="1" parent="1">
          <mxGeometry x="640" y="1120" width="80" height="950" as="geometry" />
        </mxCell>
      </root>
    </mxGraphModel>
  </diagram>
</mxfile>
